<svg xmlns="http://www.w3.org/2000/svg" xmlns:xlink="http://www.w3.org/1999/xlink" viewBox="0 0 512 512" width="512" height="512" style="width: 100%; height: 100%; transform: translate3d(0,0,0); content-visibility: visible;" preserveAspectRatio="xMidYMid meet"><defs><clipPath id="__lottie_element_2"><rect width="512" height="512" x="0" y="0"></rect></clipPath></defs><g clip-path="url(#__lottie_element_2)"><g style="display: block;" transform="matrix(5.565219879150391,0,0,5.565219879150391,-0.0001220703125,-0.0001220703125)" opacity="1"><g opacity="1" transform="matrix(1,0,0,1,46,46)"><path fill="rgb(0,0,0)" fill-opacity="1" d=" M-46,15.333000183105469 C-46,-4.557000160217285 -46,-14.501999855041504 -42.54199981689453,-22.270000457763672 C-38.520999908447266,-31.299999237060547 -31.299999237060547,-38.520999908447266 -22.270000457763672,-42.54199981689453 C-14.501999855041504,-46 -4.557000160217285,-46 15.333000183105469,-46 C25.277999877929688,-46 30.250999450683594,-46 34.1349983215332,-44.270999908447266 C38.64899826049805,-42.26100158691406 42.26100158691406,-38.650001525878906 44.270999908447266,-34.1349983215332 C46,-30.250999450683594 46,-25.27899932861328 46,-15.333999633789062 C46,4.557000160217285 46,14.501999855041504 42.54199981689453,22.270000457763672 C38.520999908447266,31.299999237060547 31.299999237060547,38.520999908447266 22.270000457763672,42.54199981689453 C14.501999855041504,46 4.557000160217285,46 -15.333000183105469,46 C-25.277999877929688,46 -30.250999450683594,46 -34.1349983215332,44.270999908447266 C-38.650001525878906,42.26100158691406 -42.26100158691406,38.64899826049805 -44.270999908447266,34.1349983215332 C-46,30.250999450683594 -46,25.277999877929688 -46,15.333000183105469z"></path></g></g><g style="display: block;" transform="matrix(5.565219879150391,0,0,5.565219879150391,-0.0001220703125,-0.0001220703125)" opacity="1"><g opacity="1" transform="matrix(1,0,0,1,46,29.246999740600586)"><path fill="rgb(255,255,255)" fill-opacity="1" d=" M-26,-3.246999979019165 C-26,-3.246999979019165 26,-3.246999979019165 26,-3.246999979019165 C26,-3.246999979019165 26,3.246999979019165 26,3.246999979019165 C26,3.246999979019165 -26,3.246999979019165 -26,3.246999979019165 C-26,3.246999979019165 -26,-3.246999979019165 -26,-3.246999979019165z"></path></g><g opacity="1" transform="matrix(1,0,0,1,45.9900016784668,52.597999572753906)"><path fill="rgb(255,255,255)" fill-opacity="1" d=" M-25.989999771118164,14.402000427246094 C-25.989999771118164,14.402000427246094 -17.322999954223633,14.402000427246094 -17.322999954223633,14.402000427246094 C-17.322999954223633,14.402000427246094 0,-8.678999900817871 0,-8.678999900817871 C0,-8.678999900817871 17.322999954223633,14.402000427246094 17.322999954223633,14.402000427246094 C17.322999954223633,14.402000427246094 25.989999771118164,14.402000427246094 25.989999771118164,14.402000427246094 C25.989999771118164,14.402000427246094 4.296000003814697,-14.402000427246094 4.296000003814697,-14.402000427246094 C4.296000003814697,-14.402000427246094 -4.296000003814697,-14.402000427246094 -4.296000003814697,-14.402000427246094 C-4.296000003814697,-14.402000427246094 -25.989999771118164,14.402000427246094 -25.989999771118164,14.402000427246094z"></path></g></g></g></svg>