<svg width="74" height="16" viewBox="0 0 74 16" fill="none" xmlns="http://www.w3.org/2000/svg">
<g clip-path="url(#clip0_5894_254)">
<path d="M50.1543 16H53.4115L59.985 2.75754L66.5585 16H69.8156L61.8455 0H58.1244L50.1543 16Z" fill="white"/>
<path fill-rule="evenodd" clip-rule="evenodd" d="M68.5102 6.19049V1.84763H70.1739C71.172 1.84763 71.819 2.40001 71.819 3.25713C71.819 3.84763 71.4863 4.30478 70.9317 4.51429L71.856 6.19049H70.8393L70.026 4.70475H69.4345V6.19049H68.5102ZM70.1184 2.62858H69.4345V3.9238H70.1184C70.562 3.9238 70.8578 3.6762 70.8578 3.25713C70.8578 2.8381 70.562 2.62858 70.1184 2.62858Z" fill="white"/>
<path fill-rule="evenodd" clip-rule="evenodd" d="M66.0518 4.03809C66.0518 1.75237 67.7893 0 70.0075 0C72.2442 0 74.0002 1.75237 74.0002 4.01906C74.0002 6.28572 72.2442 8 70.0075 8C67.7893 8 66.0518 6.28572 66.0518 4.03809ZM73.0575 4.01906C73.0575 2.20952 71.7636 0.857156 70.0075 0.857156C68.2699 0.857156 66.976 2.20952 66.976 4.03809C66.976 5.82857 68.2699 7.1619 70.0075 7.1619C71.7636 7.1619 73.0575 5.80951 73.0575 4.01906Z" fill="white"/>
<path d="M47.6044 16C48.5666 16 49.3466 15.2165 49.3466 14.25C49.3466 13.2835 48.5666 12.5 47.6044 12.5C46.6423 12.5 45.8623 13.2835 45.8623 14.25C45.8623 15.2165 46.6423 16 47.6044 16Z" fill="white"/>
<path d="M29.3301 10.3611L32.5194 10.4046C32.5531 12.2039 33.8969 13.3867 37.7205 13.3867C41.1957 13.3867 42.2428 12.6458 42.341 11.3739C42.4391 10.102 40.1198 9.66583 36.7684 9.2305C31.9023 8.72156 29.7248 7.7388 29.7248 4.7132C29.7248 2.05765 31.6234 0 37.3025 0C42.5657 0 45.3213 2.29019 45.2517 5.20361H42.0856C42.0856 3.76471 40.8242 2.61334 37.3025 2.61334C33.9201 2.61334 32.9499 3.33694 32.891 4.53906C32.8343 5.69547 35.6368 6.14719 38.1238 6.54803C38.2221 6.56387 38.3199 6.57965 38.4171 6.59537C41.8846 7.05249 45.5071 7.81177 45.5071 11.1127C45.5071 14.0549 42.8211 16 37.6972 16C31.722 16 29.3301 13.898 29.3301 10.3611Z" fill="white"/>
<path d="M28.5346 0H12.6377V2.75H19.1189V16H22.1055V2.75H28.5346V0Z" fill="white"/>
<path d="M0 0H9.45735V2.75H0V0Z" fill="white"/>
<path d="M6.47081 13.25H0V16H15.8969V13.25H9.45735V6H6.47081V13.25Z" fill="white"/>
</g>
<defs>
<clipPath id="clip0_5894_254">
<rect width="74" height="16" fill="white"/>
</clipPath>
</defs>
</svg>
